<svg id="Layer_1" xmlns="http://www.w3.org/2000/svg" viewBox="251 -190.1 800 800"><style>.st0{fill:url(#SVGID_1_)}.st1{fill:#9056b2}.st2{fill:url(#SVGID_2_)}.st3{fill:#60bed1}.st4{fill:#84c6ba}</style><radialGradient id="SVGID_1_" cx="617.4" cy="222.479" r="619.071" gradientTransform="matrix(1 0 0 -1 0 418.82)" gradientUnits="userSpaceOnUse"><stop offset=".42" stop-color="#f2f2f3"/><stop offset=".679" stop-color="#d7d9da"/><stop offset=".859" stop-color="#bdbfc2"/><stop offset="1" stop-color="#8e8f92"/></radialGradient><path class="st0" d="M252.6-190.1h800v800h-800z"/><path class="st1" d="M899 150.1c12.1 14.8 23.3 30.5 33.4 46.9l-.2.1c-16.5 10.1-32.2 21.3-47 33.4-11.7 9.6-11.8 20.9-1.2 25.2 8.2 3.4 15.2 6.6 19.1 8.2 13.1 5.4 18.1 23.7 11 40.9-7.1 17.2-23.5 26.7-36.6 21.3-5.6-2.3-16.1-13.3-25.6-26.5-8.9-12.3-22.6-14.2-32-2.3-9.9 12.6-19 25.8-27.5 39.6-10.1-16.5-21.2-32.1-33.4-47-9.6-11.7-20.8-11.8-25.2-1.2-3.4 8.2-6.6 15.2-8.2 19.1-5.4 13.1-23.7 18.1-40.9 11s-26.7-23.5-21.3-36.6c2.3-5.6 13.3-16.1 26.5-25.6 12.3-8.9 14.2-22.6 2.3-32-12.6-9.9-25.8-19-39.6-27.5v-.1c8.4-13.8 17.6-27 27.5-39.6 9.3-11.9 23.1-10 32 2.3 9.5 13.2 20 24.2 25.6 26.5 13.2 5.4 29.5-4.2 36.6-21.3 7-17.2 2.1-35.5-11-40.9-3.8-1.6-10.9-4.8-19.1-8.2-10.6-4.3-10.6-15.6 1.2-25.2 14.8-12.2 30.5-23.3 47-33.4l.3-.1c13.8 8.4 27 17.6 39.6 27.5 12 9.3 10 23-2.3 32-13.2 9.5-24.2 20-26.5 25.6-5.4 13.2 4.2 29.6 21.3 36.6 17.2 7 35.5 2.1 40.9-11 1.6-3.8 4.8-10.9 8.2-19.1 4.2-10.4 15.5-10.3 25.1 1.4z"/><linearGradient id="SVGID_2_" gradientUnits="userSpaceOnUse" x1="668.12" y1="218.936" x2="342.128" y2="224.48" gradientTransform="matrix(1 0 0 -1 0 418.82)"><stop offset=".172" stop-color="#fbb733"/><stop offset="1" stop-color="#faa500"/></linearGradient><path class="st2" d="M406.2 244.1c-12.1-14.8-23.3-30.5-33.4-46.9l.2-.1c16.5-10.1 32.2-21.3 47-33.4 11.7-9.6 11.8-20.9 1.2-25.2-8.2-3.4-15.2-6.6-19.1-8.2-13.1-5.4-18.1-23.7-11-40.9 7.1-17.2 23.5-26.7 36.6-21.3 5.6 2.3 16.1 13.3 25.6 26.5 8.9 12.3 22.6 14.2 32 2.3 9.9-12.6 19-25.8 27.5-39.6 10.1 16.5 21.2 32.2 33.4 47 9.6 11.7 20.8 11.8 25.2 1.2 3.4-8.2 6.6-15.2 8.2-19.1 5.4-13.1 23.7-18.1 40.9-11 17.2 7.1 26.7 23.5 21.3 36.6-2.3 5.6-13.3 16.1-26.5 25.6-12.3 8.9-14.2 22.6-2.3 32 12.6 9.9 25.8 19 39.6 27.5v.1c-8.4 13.8-17.6 27-27.5 39.6-9.3 11.9-23.1 10-32-2.3-9.5-13.2-20-24.2-25.6-26.5-13.2-5.4-29.5 4.2-36.6 21.3-7 17.2-2.1 35.5 11 40.9 3.8 1.6 10.9 4.8 19.1 8.2 10.6 4.3 10.6 15.6-1.2 25.2-14.8 12.2-30.5 23.3-47 33.4l-.3.1c-13.8-8.4-27-17.6-39.6-27.5-12-9.3-10-23 2.3-32 13.2-9.5 24.2-20 26.5-25.6 5.4-13.2-4.2-29.6-21.3-36.6-17.2-7-35.5-2.1-40.9 11-1.6 3.8-4.8 10.9-8.2 19.1-4.2 10.4-15.4 10.4-25.1-1.4z"/><path class="st3" d="M613.6-97.3c14.8-12.1 30.5-23.3 46.9-33.4l.1.2c10.1 16.5 21.3 32.2 33.4 47 9.6 11.7 20.9 11.8 25.2 1.2 3.4-8.2 6.6-15.2 8.2-19.1 5.4-13.1 23.7-18.1 40.9-11 17.2 7.1 26.7 23.5 21.3 36.6-2.3 5.6-13.3 16.1-26.5 25.6-12.3 8.9-14.2 22.6-2.3 32 12.6 9.9 25.8 19 39.6 27.5-16.5 10.1-32.1 21.2-47 33.4-11.8 9.6-11.8 20.8-1.2 25.2 8.2 3.4 15.2 6.6 19.1 8.2 13.1 5.4 18.1 23.7 11 40.9-7.1 17.2-23.5 26.7-36.6 21.3-5.6-2.3-16.1-13.3-25.6-26.5-8.9-12.3-22.6-14.2-32-2.3-9.9 12.6-19 25.8-27.5 39.6h-.1c-13.8-8.4-27-17.6-39.6-27.5-11.9-9.3-10-23.1 2.3-32 13.2-9.5 24.2-20 26.5-25.6 5.4-13.2-4.2-29.5-21.3-36.6-17.2-7-35.5-2.1-40.9 11-1.6 3.8-4.8 10.9-8.2 19.1-4.3 10.6-15.6 10.6-25.2-1.2-12.2-14.8-23.3-30.5-33.4-47l-.1-.3c8.4-13.8 17.6-27 27.5-39.6 9.3-12 23-10 32 2.3 9.5 13.2 20 24.2 25.6 26.5 13.2 5.4 29.6-4.2 36.6-21.3 7-17.2 2.1-35.5-11-40.9-3.8-1.6-10.9-4.8-19.1-8.2-10.4-4.2-10.3-15.5 1.4-25.1z"/><path class="st4" d="M699.7 443.4c-14.8 12.1-30.5 23.3-46.9 33.4l-.1-.2c-10.1-16.5-21.3-32.2-33.4-47-9.6-11.7-20.9-11.8-25.2-1.2-3.4 8.2-6.6 15.2-8.2 19.1-5.4 13.2-23.7 18.1-40.9 11-17.2-7.1-26.7-23.5-21.3-36.6 2.3-5.6 13.3-16.1 26.5-25.6 12.3-8.9 14.2-22.6 2.3-32-12.6-9.9-25.8-19-39.6-27.5 16.5-10.1 32.1-21.2 47-33.4 11.7-9.6 11.8-20.8 1.2-25.2-8.2-3.4-15.2-6.6-19.1-8.2-13.1-5.4-18.1-23.7-11-40.9 7.1-17.2 23.5-26.7 36.6-21.3 5.6 2.3 16.1 13.3 25.6 26.5 8.9 12.3 22.6 14.2 32 2.3 9.9-12.6 19-25.8 27.5-39.6h.1c13.8 8.4 27 17.6 39.6 27.5 11.9 9.3 10 23.1-2.3 32-13.2 9.5-24.2 20-26.5 25.6-5.4 13.2 4.2 29.5 21.3 36.6 17.2 7 35.5 2.1 40.9-11 1.6-3.8 4.8-10.9 8.2-19.1 4.3-10.6 15.6-10.6 25.2 1.2 12.2 14.8 23.3 30.5 33.4 47l.1.3c-8.4 13.8-17.6 27-27.5 39.6-9.3 12-23 10-32-2.3-9.5-13.2-20-24.2-25.6-26.5-13.2-5.4-29.5 4.2-36.6 21.3-7 17.2-2.1 35.5 11 40.9 3.8 1.6 10.9 4.8 19.1 8.2 10.4 4.3 10.3 15.5-1.4 25.1z"/></svg>