<svg id="Layer_1" xmlns="http://www.w3.org/2000/svg" viewBox="0 0 94.6 35.1"><style>.st0{fill:#fff;stroke:#000;stroke-miterlimit:10}.st1{fill:url(#XMLID_70_)}.st2{fill:url(#XMLID_71_)}.st3{fill:url(#XMLID_72_)}.st4{fill:url(#XMLID_73_)}</style><g id="logoSVG"><linearGradient id="XMLID_70_" gradientUnits="userSpaceOnUse" x1="4.152" y1="17.63" x2="91.953" y2="17.63"><stop offset=".21" stop-color="#60bed1"/><stop offset=".5" stop-color="#eea745"/><stop offset=".781" stop-color="#84c6ba"/></linearGradient><path id="u_char" class="st1" d="M25.2 4l-3.6 18.3c-.6 3.1-1.9 5.4-3.7 6.9-1.8 1.5-4 2.2-6.7 2.2-2.5 0-4.4-.8-5.7-2.3-1.3-1.5-1.6-3.8-1-6.8L8.1 4H9L5.4 22.2c-.5 2.7-.3 4.7.9 6 1.1 1.3 2.8 2 5.2 2 2.2 0 4.2-.7 5.9-2.1 1.7-1.4 2.8-3.4 3.4-6L24.3 4h.9z"/><linearGradient id="XMLID_71_" gradientUnits="userSpaceOnUse" x1="4.152" y1="17.63" x2="91.953" y2="17.63"><stop offset=".21" stop-color="#60bed1"/><stop offset=".5" stop-color="#eea745"/><stop offset=".781" stop-color="#84c6ba"/></linearGradient><path id="x_char1" class="st2" d="M36.3 16.4L46.3 4h1.2L36.7 17.2l6.8 13.7h-1.1l-6.4-13-10.5 13h-1.1l11.2-13.7L29 4h1.2l6.1 12.4z"/><linearGradient id="XMLID_72_" gradientUnits="userSpaceOnUse" x1="4.152" y1="17.63" x2="91.953" y2="17.63"><stop offset=".21" stop-color="#60bed1"/><stop offset=".5" stop-color="#eea745"/><stop offset=".781" stop-color="#84c6ba"/></linearGradient><path id="d_char" class="st3" d="M47.8 30.9L53.2 4h6.3c2.9 0 5.2 1.1 7 3.3s2.3 5.1 1.7 8.5l-.6 3.3c-.8 3.7-2.2 6.6-4.4 8.7-2.2 2.1-4.7 3.1-7.6 3.1h-7.8zM53.9 5l-5 24.9h6.7c2.5 0 4.8-1 6.8-3s3.4-4.6 4.1-7.8l.7-3.3c.6-3.2.2-5.8-1.4-7.8-1.6-2-3.8-3-6.5-3h-5.4z"/><linearGradient id="XMLID_73_" gradientUnits="userSpaceOnUse" x1="4.152" y1="17.63" x2="91.953" y2="17.63"><stop offset=".21" stop-color="#60bed1"/><stop offset=".5" stop-color="#eea745"/><stop offset=".781" stop-color="#84c6ba"/></linearGradient><path id="x_char2" class="st4" d="M80.7 16.4L90.8 4H92L81.2 17.2 88 30.9h-1.1l-6.4-13-10.5 13h-1.1L80 17.2 73.5 4h1.2l6 12.4z"/></g></svg>